<svg xmlns="http://www.w3.org/2000/svg" width="875.9" height="465.9" viewBox="0 0 875.9 465.9"><style type="text/css">.st0{opacity:0.49;} .st1{fill:#04B6D6;}</style><g id="Texts"><g class="st0"><path class="st1" d="M88.3 149.3c13.9 0 22.9 10.7 22.9 23.2 0 13.6-10.7 22.9-23.9 22.9-21.9 0-32.6-23.6-32.6-44.5 0-37.1 26.8-58.7 34.8-58.7 2.9 0 6.5 2.6 6.5 5.8 0 1.6 0 3.9-7.7 9.4-15.8 10.7-23.9 27.8-23.9 43.6 0 6.1 1.3 9.4 2.6 12.6 1.9-4.3 7.1-14.3 21.3-14.3zm72.9 0c13.9 0 22.9 10.7 22.9 23.2 0 13.6-10.7 22.9-23.9 22.9-22.3 0-32.6-23.6-32.6-44.5 0-37.1 26.8-58.7 34.9-58.7 2.6 0 6.5 2.6 6.5 5.8 0 1.6 0 3.9-7.7 9.4-15.9 10.6-24.3 27.7-24.3 43.5 0 6.1 1.6 9.4 2.9 12.6 1.9-4.2 7.1-14.2 21.3-14.2zM789.1 285.8c-13.9 0-22.9-10.7-22.9-23.2 0-13.6 10.7-22.9 23.9-22.9 21.9 0 32.6 23.6 32.6 44.5 0 37.1-26.8 58.7-34.8 58.7-2.9 0-6.5-2.6-6.5-5.8 0-1.6 0-3.9 7.7-9.4 15.8-10.7 23.9-27.8 23.9-43.6 0-6.1-1.3-9.4-2.6-12.6-2 4.3-7.1 14.3-21.3 14.3zm-72.9 0c-13.9 0-22.9-10.7-22.9-23.2 0-13.6 10.7-22.9 23.9-22.9 22.3 0 32.6 23.6 32.6 44.5 0 37.1-26.8 58.7-34.9 58.7-2.6 0-6.5-2.6-6.5-5.8 0-1.6 0-3.9 7.7-9.4 15.8-10.7 24.2-27.8 24.2-43.6 0-6.1-1.6-9.4-2.9-12.6-1.9 4.3-7 14.3-21.2 14.3z"/></g></g></svg>