<?xml version="1.0" encoding="utf-8"?>
<!-- Generator: Adobe Illustrator 18.1.1, SVG Export Plug-In . SVG Version: 6.00 Build 0)  -->
<!DOCTYPE svg PUBLIC "-//W3C//DTD SVG 1.1//EN" "http://www.w3.org/Graphics/SVG/1.1/DTD/svg11.dtd">
<svg version="1.1" xmlns="http://www.w3.org/2000/svg" xmlns:xlink="http://www.w3.org/1999/xlink" x="0px" y="0px" width="875.9px"
	 height="465.9px" viewBox="0 0 875.9 465.9" style="enable-background:new 0 0 875.9 465.9;" xml:space="preserve">
<style type="text/css">
	.st0{opacity:0.49;}
	.st1{fill:#04B6D6;}
</style>
<g id="Layer_1">
</g>
<g id="Texts">
	<g class="st0">
		<path class="st1" d="M88.3,149.3c13.9,0,22.9,10.7,22.9,23.2c0,13.6-10.7,22.9-23.9,22.9c-21.9,0-32.6-23.6-32.6-44.5
			c0-37.1,26.8-58.7,34.8-58.7c2.9,0,6.5,2.6,6.5,5.8c0,1.6,0,3.9-7.7,9.4c-15.8,10.7-23.9,27.8-23.9,43.6c0,6.1,1.3,9.4,2.6,12.6
			C68.9,159.3,74.1,149.3,88.3,149.3z M161.2,149.3c13.9,0,22.9,10.7,22.9,23.2c0,13.6-10.7,22.9-23.9,22.9
			c-22.3,0-32.6-23.6-32.6-44.5c0-37.1,26.8-58.7,34.9-58.7c2.6,0,6.5,2.6,6.5,5.8c0,1.6,0,3.9-7.7,9.4
			C145.4,118,137,135.1,137,150.9c0,6.1,1.6,9.4,2.9,12.6C141.8,159.3,147,149.3,161.2,149.3z"/>
		<path class="st1" d="M789.1,285.8c-13.9,0-22.9-10.7-22.9-23.2c0-13.6,10.7-22.9,23.9-22.9c21.9,0,32.6,23.6,32.6,44.5
			c0,37.1-26.8,58.7-34.8,58.7c-2.9,0-6.5-2.6-6.5-5.8c0-1.6,0-3.9,7.7-9.4c15.8-10.7,23.9-27.8,23.9-43.6c0-6.1-1.3-9.4-2.6-12.6
			C808.4,275.8,803.3,285.8,789.1,285.8z M716.2,285.8c-13.9,0-22.9-10.7-22.9-23.2c0-13.6,10.7-22.9,23.9-22.9
			c22.3,0,32.6,23.6,32.6,44.5c0,37.1-26.8,58.7-34.9,58.7c-2.6,0-6.5-2.6-6.5-5.8c0-1.6,0-3.9,7.7-9.4
			c15.8-10.7,24.2-27.8,24.2-43.6c0-6.1-1.6-9.4-2.9-12.6C735.5,275.8,730.4,285.8,716.2,285.8z"/>
	</g>
	<g>
	</g>
	<g>
	</g>
	<g>
	</g>
	<g>
	</g>
	<g>
	</g>
	<g>
	</g>
</g>
</svg>
