<svg xmlns="http://www.w3.org/2000/svg" width="143.1" height="95" viewBox="-362.1 242.7 143.1 95" enable-background="new -362.1 242.7 143.1 95"><style type="text/css">.st0{fill:#FBAA36;} .st1{fill:#FEE630;} .st2{fill:none;stroke:#FEE630;stroke-width:1.7301;stroke-miterlimit:10;}</style><g id="first_page"><path class="st0" d="M-296.4 249.8c-.1.4-.2.7-.2 1.1-.1.4-.1.7 0 1 0 .3.1.6.2.9 0 .1.1.3.2.4l.3.4.4.5s.2.3.3.5c.1.4.2.8.1 1.2s-.2.7-.4 1.1c-.2.3-.4.6-.7.8.2-.7.4-1.3.3-1.9l-.1-.4c0-.1-.1-.3-.2-.4l-.2-.3-.3-.3c-.3-.3-.5-.7-.6-1.2-.1-.2-.1-.4-.1-.6v-.6c0-.9.4-1.7 1-2.2zM-293.2 249.8c-.1.4-.2.7-.2 1.1-.1.4-.1.7 0 1 0 .3.1.6.2.9 0 .1.1.3.2.4s.2.3.3.4l.4.5.3.5c.1.4.2.8.1 1.2s-.2.7-.4 1.1c-.2.3-.4.6-.7.8.2-.7.4-1.3.3-1.9l-.1-.4c0-.1-.1-.3-.2-.4l-.2-.3-.3-.3c-.3-.3-.5-.7-.6-1.2-.1-.2-.1-.4-.1-.6v-.6c0-.9.4-1.7 1-2.2zM-290 249.8c-.1.4-.2.7-.2 1.1-.1.4-.1.7 0 1 0 .3.1.6.2.9 0 .1.1.3.2.4l.3.4.4.5s.2.3.3.5c.1.4.2.8.1 1.2-.1.4-.2.7-.4 1.1-.2.3-.4.6-.7.8.2-.7.4-1.3.3-1.9l-.1-.4c0-.1-.1-.3-.2-.4l-.2-.3-.3-.3c-.3-.3-.5-.7-.6-1.2-.1-.2-.1-.4-.1-.6v-.6c0-.9.4-1.7 1-2.2z"/><path class="st1" d="M-262.1 295.9c.3-1.6.6-3.3.7-5 0-.9-.6-1.6-1.5-1.6h-59.9c-.9 0-1.5.7-1.5 1.6.1 2 .4 2.9.8 4.8l33.3 1.1c10.3-2.1 21.4-1.6 28.1-.9zM-262.3 296.8h-14c-12 2.1-39.3 1.4-47 .7 2.7 10.3 10.6 18.5 20.6 21.8-.7.4-1.1 1.2-1.1 2v2.4h22.4v-2.4c0-.9-.6-1.7-1.4-2.1 10.2-3.5 18-12 20.5-22.4z"/><path class="st0" d="M-232.4 264.4l-68.3.1v1.4h68.3zM-232.4 266.8l-68.3.1v1.5h68.3z"/><path class="st2" d="M-297.3 263.4s-1.1 8.9 0 16.6c1.1 6.8 0 14.3 0 14.3M-295.1 263.4s-1.1 8.9 0 16.6c1.1 6.8 0 14.3 0 14.3M-292.9 263.4s-1.1 8.9 0 16.6c1.1 6.8 0 14.3 0 14.3M-293 263.4s-1.1 8.9 0 16.6c1.1 6.8 0 14.3 0 14.3M-290.7 263.4s-1.1 8.9 0 16.6c1.1 6.8 0 14.3 0 14.3M-288.6 263.4s-1.1 8.9 0 16.6c1.1 6.8 0 14.3 0 14.3"/></g></svg>