<?xml version="1.0" encoding="utf-8"?>
<!-- Generator: Adobe Illustrator 18.1.1, SVG Export Plug-In . SVG Version: 6.00 Build 0)  -->
<!DOCTYPE svg PUBLIC "-//W3C//DTD SVG 1.1//EN" "http://www.w3.org/Graphics/SVG/1.1/DTD/svg11.dtd">
<svg version="1.1" id="Layer_1" xmlns="http://www.w3.org/2000/svg" xmlns:xlink="http://www.w3.org/1999/xlink" x="0px" y="0px"
	 width="143.1px" height="95px" viewBox="-362.1 242.7 143.1 95" style="enable-background:new -362.1 242.7 143.1 95;"
	 xml:space="preserve">
<style type="text/css">
	.st0{fill:#FBAA36;}
	.st1{fill:#FEE630;}
	.st2{fill:none;stroke:#FEE630;stroke-width:1.7301;stroke-miterlimit:10;}
</style>
<g id="Layer_1_1_">
</g>
<g id="first_page">
	<g>
		<g>
			<path class="st0" d="M-296.4,249.8c-0.1,0.4-0.2,0.7-0.2,1.1c-0.1,0.4-0.1,0.7,0,1c0,0.3,0.1,0.6,0.2,0.9c0,0.1,0.1,0.3,0.2,0.4
				c0.1,0.1,0.2,0.3,0.3,0.4l0,0c0.1,0.2,0.3,0.3,0.4,0.5s0.2,0.3,0.3,0.5c0.1,0.4,0.2,0.8,0.1,1.2s-0.2,0.7-0.4,1.1
				c-0.2,0.3-0.4,0.6-0.7,0.8c0.2-0.7,0.4-1.3,0.3-1.9c0-0.1-0.1-0.3-0.1-0.4c0-0.1-0.1-0.3-0.2-0.4c-0.1-0.1-0.1-0.2-0.2-0.3
				s-0.2-0.2-0.3-0.3l0,0c-0.3-0.3-0.5-0.7-0.6-1.2c-0.1-0.2-0.1-0.4-0.1-0.6c0-0.2,0-0.4,0-0.6C-297.4,251.1-297,250.3-296.4,249.8
				z"/>
		</g>
		<g>
			<path class="st0" d="M-293.2,249.8c-0.1,0.4-0.2,0.7-0.2,1.1c-0.1,0.4-0.1,0.7,0,1c0,0.3,0.1,0.6,0.2,0.9c0,0.1,0.1,0.3,0.2,0.4
				s0.2,0.3,0.3,0.4l0,0c0.1,0.2,0.3,0.3,0.4,0.5c0.1,0.2,0.2,0.3,0.3,0.5c0.1,0.4,0.2,0.8,0.1,1.2s-0.2,0.7-0.4,1.1
				c-0.2,0.3-0.4,0.6-0.7,0.8c0.2-0.7,0.4-1.3,0.3-1.9c0-0.1-0.1-0.3-0.1-0.4c0-0.1-0.1-0.3-0.2-0.4c-0.1-0.1-0.1-0.2-0.2-0.3
				s-0.2-0.2-0.3-0.3l0,0c-0.3-0.3-0.5-0.7-0.6-1.2c-0.1-0.2-0.1-0.4-0.1-0.6c0-0.2,0-0.4,0-0.6
				C-294.2,251.1-293.8,250.3-293.2,249.8z"/>
		</g>
		<g>
			<path class="st0" d="M-290,249.8c-0.1,0.4-0.2,0.7-0.2,1.1c-0.1,0.4-0.1,0.7,0,1c0,0.3,0.1,0.6,0.2,0.9c0,0.1,0.1,0.3,0.2,0.4
				c0.1,0.1,0.2,0.3,0.3,0.4l0,0c0.1,0.2,0.3,0.3,0.4,0.5s0.2,0.3,0.3,0.5c0.1,0.4,0.2,0.8,0.1,1.2c-0.1,0.4-0.2,0.7-0.4,1.1
				c-0.2,0.3-0.4,0.6-0.7,0.8c0.2-0.7,0.4-1.3,0.3-1.9c0-0.1-0.1-0.3-0.1-0.4c0-0.1-0.1-0.3-0.2-0.4c-0.1-0.1-0.1-0.2-0.2-0.3
				c-0.1-0.1-0.2-0.2-0.3-0.3l0,0c-0.3-0.3-0.5-0.7-0.6-1.2c-0.1-0.2-0.1-0.4-0.1-0.6c0-0.2,0-0.4,0-0.6
				C-291,251.1-290.6,250.3-290,249.8z"/>
		</g>
		<g>
			<path class="st1" d="M-262.1,295.9c0.3-1.6,0.6-3.3,0.7-5c0-0.9-0.6-1.6-1.5-1.6h-59.9c-0.9,0-1.5,0.7-1.5,1.6
				c0.1,2,0.4,2.9,0.8,4.8l33.3,1.1C-279.9,294.7-268.8,295.2-262.1,295.9z"/>
			<path class="st1" d="M-262.3,296.8h-14c-12,2.1-39.3,1.4-47,0.7c2.7,10.3,10.6,18.5,20.6,21.8c-0.7,0.4-1.1,1.2-1.1,2v2.4h22.4
				v-2.4c0-0.9-0.6-1.7-1.4-2.1C-272.6,315.7-264.8,307.2-262.3,296.8z"/>
		</g>
		<g>
			<polygon class="st0" points="-232.4,264.4 -300.7,264.5 -300.7,265.9 -232.4,265.9 			"/>
			<polygon class="st0" points="-232.4,266.8 -300.7,266.9 -300.7,268.4 -232.4,268.4 			"/>
		</g>
		<g>
			<g>
				<path class="st2" d="M-297.3,263.4c0,0-1.1,8.9,0,16.6c1.1,6.8,0,14.3,0,14.3"/>
				<path class="st2" d="M-295.1,263.4c0,0-1.1,8.9,0,16.6c1.1,6.8,0,14.3,0,14.3"/>
				<path class="st2" d="M-292.9,263.4c0,0-1.1,8.9,0,16.6c1.1,6.8,0,14.3,0,14.3"/>
			</g>
			<g>
				<path class="st2" d="M-293,263.4c0,0-1.1,8.9,0,16.6c1.1,6.8,0,14.3,0,14.3"/>
				<path class="st2" d="M-290.7,263.4c0,0-1.1,8.9,0,16.6c1.1,6.8,0,14.3,0,14.3"/>
				<path class="st2" d="M-288.6,263.4c0,0-1.1,8.9,0,16.6c1.1,6.8,0,14.3,0,14.3"/>
			</g>
		</g>
	</g>
</g>
</svg>
