<svg xmlns="http://www.w3.org/2000/svg" width="202.8" height="60.5" viewBox="0 0 202.8 60.5"><style type="text/css">.st0{fill:none;} .st1{fill:#ECE310;stroke:#010101;stroke-width:7.713000e-02;stroke-miterlimit:10;} .st2{fill:url(#SVGID_1_);} .st3{fill:url(#SVGID_2_);} .st4{fill:url(#SVGID_3_);} .st5{fill:url(#SVGID_4_);} .st6{fill:url(#SVGID_5_);} .st7{fill:url(#SVGID_6_);} .st8{fill:none;stroke:#FFFFFF;stroke-width:0.581;stroke-miterlimit:10;} .st9{fill:none;stroke:#FFFFFF;stroke-width:0.7744;stroke-miterlimit:10;} .st10{fill:none;stroke:#FFFFFF;stroke-width:0.7311;stroke-miterlimit:10;} .st11{fill:url(#SVGID_7_);}</style><path class="st0" d="M10.6 8.9h181.5v19.4h-181.5z"/><path class="st1" d="M11.7 15.9h-.4v-4.8c0-.4.1-.7.2-1.1.1-.4.3-.7.7-.9.3-.2.7-.4 1.2-.4s1 .1 1.3.3c.3.2.6.4.7.7s.2.5.2.8c0 .4-.1.8-.3 1.1s-.5.6-.9.7c.4.1.8.2 1 .6.2.3.3.6.3 1v2h-.4v-2.1c0-.3-.1-.5-.2-.7l-.3-.2c-.1-.1-.2-.1-.4-.2-.1 0-.3-.1-.5-.1h-1.9v-.4h1.2c.4 0 .7-.1 1-.2.3-.1.4-.3.6-.6.1-.2.2-.5.2-.8 0-.3-.1-.5-.2-.8-.1-.2-.3-.4-.6-.6-.3-.1-.6-.2-1-.2-.2 0-.4 0-.6.1-.2.1-.4.2-.5.3-.3.3-.5.8-.5 1.5v5zM22.6 8.9v.4h-.6c-.7 0-1.3.1-1.8.4-.5.3-.9.6-1.1 1.1l-.3.7c-.1.2-.1.5-.1.7h3.9v.3h-3.9c0 .6.2 1.2.5 1.6.3.5.7.8 1.2 1.1.2.1.5.2.8.3l.4.1h1.1v.4h-.8c-.4 0-.8-.1-1.2-.2-.4-.1-.8-.3-1.1-.6-.3-.3-.6-.7-.9-1.2-.2-.5-.3-1.1-.3-1.7 0-.2 0-.5.1-.7l.1-.4c0-.1.1-.2.2-.4.2-.5.7-.9 1.2-1.3s1.3-.6 2.2-.6h.4zM29.5 8.9v.4h-2c-.8 0-1.3.1-1.5.3-.1.1-.2.2-.3.4-.1.2-.1.3-.1.5v.1c0 .2.1.4.2.6.2.2.3.3.6.4l.7.3.8.2.6.2s.3.2.5.2c.3.2.5.4.6.6.1.1.1.3.1.4v.7c-.1.5-.3.9-.6 1.1-.2.1-.4.2-.7.3-.3.1-.6.1-1 .1h-2.3000000000000003v-.4h2.3000000000000003c.7 0 1.1-.1 1.4-.4s.5-.5.5-.8c0-.4-.1-.7-.3-.9s-.4-.4-.6-.5c-.1-.1-.3-.1-.5-.2s-.4-.1-.7-.2l-.9-.3c-.3-.1-.6-.3-.8-.5-.3-.2-.4-.5-.5-.9v-.30000000000000004c0-.5.2-.9.5-1.2s.9-.4 1.5-.4h2.5zM36.6 8.9v.4h-2v6.7h-.4v-6.8h-2v-.3h4.4zM39.4 15.9h-.4v-4.8c0-.4.1-.8.3-1.2s.4-.7.8-.9c.4-.2.8-.3 1.4-.3h.6c.1 0 .2 0 .3.1.1 0 .2 0 .2.1.2.1.4.3.6.5.2.2.4.5.5.8.1.3.2.6.2.9v4.8h-.4v-3.4h-3.6v-.4h3.6v-1.1c0-.3-.1-.6-.3-.9-.1-.3-.4-.5-.7-.7-.3-.2-.7-.2-1.1-.2-.4 0-.7.1-1 .2-.3.1-.5.4-.7.6-.2.3-.3.6-.3 1v4.9zM47.3 8.9v4.8c0 .6.2 1.1.5 1.5.3.4.9.5 1.5.5.4 0 .7-.1 1-.2.3-.2.5-.4.7-.7.2-.3.3-.7.3-1.1v-4.8h.4v4.6c0 .4-.1.8-.2 1.2-.1.4-.4.7-.7 1l-.6.3h-.8c-.5 0-1-.1-1.3-.3s-.7-.5-.9-.9c-.2-.4-.3-.9-.3-1.4v-4.5h.4zM55.2 15.9h-.4v-4.8c0-.4.1-.7.2-1.1.1-.4.3-.7.7-.9.3-.2.7-.4 1.2-.4s1 .1 1.3.3c.3.2.6.4.7.7s.2.5.2.8c0 .4-.1.8-.3 1.1s-.5.6-.9.7c.4.1.8.2 1 .6.2.3.3.6.3 1v2h-.4v-2.1c0-.3-.1-.5-.2-.7l-.2-.2c-.1-.1-.2-.1-.4-.2-.1 0-.3-.1-.5-.1h-1.9v-.4h1.2c.4 0 .7-.1 1-.2.3-.1.4-.3.6-.6.1-.2.2-.5.2-.8 0-.3-.1-.5-.2-.8-.1-.2-.3-.4-.6-.6-.3-.1-.6-.2-1-.2-.2 0-.4 0-.6.1-.2.1-.4.2-.5.3-.3.3-.5.8-.5 1.5v5zM62.5 15.9h-.4v-4.8c0-.4.1-.8.3-1.2s.4-.7.8-.9c.4-.2.8-.3 1.4-.3h.6c.1 0 .2 0 .3.1.1 0 .2 0 .2.1.3.1.6.3.8.5.2.2.4.5.5.8.1.3.2.6.2.9v4.8h-.4v-3.4h-3.6v-.4h3.6v-1.1c0-.3-.1-.6-.3-.9-.1-.3-.4-.5-.7-.7-.3-.2-.7-.2-1.1-.2-.4 0-.7.1-1 .2-.5.1-.7.3-.9.6-.2.3-.3.6-.3 1v4.9zM70.5 15.9h-.5v-6.6c0-.3.2-.5.5-.6.3 0 .5.1.7.4l2.9 6.2v.1l.1.1.1.1c.1 0 .1-.1.1-.3v-6.6h.4v6.7c0 .2 0 .3-.1.4-.1.1-.2.1-.4.1-.3 0-.5-.2-.7-.5l-2.9-6.1c0-.1-.1-.2-.1-.2s-.1-.1-.2-.1-.1.1-.1.2v6.7zM81.7 8.9v.4h-2v6.7h-.4v-6.8h-2v-.3h4.4zM136.8 8.9v.4h-2c-.8 0-1.3.1-1.5.3-.1.1-.2.2-.3.4-.1.2-.1.3-.1.5v.1c0 .2.1.4.2.6.2.2.3.3.6.4l.7.3.8.2.6.2s.3.2.5.2c.3.2.5.4.6.6.1.1.1.3.1.4v.7c-.1.5-.3.9-.6 1.1-.2.1-.4.2-.7.3-.3.1-.6.1-1 .1h-2.3000000000000003v-.4h2.3000000000000003c.7 0 1.1-.1 1.4-.4s.5-.5.5-.8c0-.4-.1-.7-.3-.9s-.4-.4-.6-.5c-.1-.1-.3-.1-.5-.2s-.4-.1-.7-.2l-.9-.3c-.3-.1-.6-.3-.8-.5-.3-.2-.4-.5-.5-.9v-.30000000000000004c0-.5.2-.9.5-1.2s.9-.4 1.5-.4h2.5zM139.5 8.9v7h-.4v-7h.4zM142.1 15.9h-.4v-6.6c0-.3.2-.5.5-.6.3 0 .5.1.7.4l2.9 6.2v.1l.1.1.1.1c.1 0 .1-.1.1-.3v-6.6h.4v6.7c0 .2 0 .3-.1.4-.1.1-.2.1-.4.1-.3 0-.5-.2-.7-.5l-2.9-6.1c0-.1-.1-.2-.1-.2s-.1-.1-.2-.1-.1.1-.1.2v6.7zM152.5 8.9v.4h-.9c-.3 0-.5 0-.7.1-.2 0-.4.1-.6.2-.4.2-.7.4-1 .7-.3.3-.5.6-.6 1l-.1.3s-.1.2-.1.3l-.1.6c0 .9.3 1.6.8 2.2.3.3.6.5 1 .7.4.2.9.3 1.4.3h.8v.4h-.8c-.2 0-.5 0-.7-.1-.2 0-.4-.1-.6-.2-.4-.2-.8-.4-1.1-.7s-.6-.7-.8-1.2c-.1-.2-.2-.5-.2-.7 0-.1 0-.3-.1-.4v-.4c0-.4.1-.8.2-1.2.1-.3.3-.6.5-.9.4-.5.9-.9 1.4-1s1-.3 1.4-.3h.9zM157.8 8.9v.4h-.6c-.7 0-1.3.1-1.8.4-.5.3-.9.6-1.1 1.1l-.3.7c-.1.2-.1.5-.1.7h3.9v.3h-3.9c0 .6.2 1.2.5 1.6.3.5.7.8 1.2 1.1.2.1.5.2.8.3l.4.1h1.1v.4h-.9c-.4 0-.8-.1-1.2-.2-.4-.1-.8-.3-1.1-.6-.3-.3-.6-.7-.9-1.2-.2-.5-.3-1.1-.3-1.7 0-.2 0-.5.1-.7l.1-.4c0-.1.1-.2.2-.4.2-.5.7-.9 1.2-1.3s1.3-.6 2.2-.6h.5zM165.1 8.9v7h-.4v-6.7h-1.2l.1-.4h1.5zM171.9 13.1l-.3.4c-.1 0-.3.1-.6.1-.2 0-.4 0-.6-.1l-.3-.1-.3-.1c-.4-.2-.7-.5-.9-.9s-.4-.9-.4-1.4v-.4c0-.2.1-.3.2-.5l.3-.4.3-.3c.2-.2.5-.3.8-.4l.4-.1h.7c.4 0 .8.2 1.1.4.3.2.6.5.8.9.2.3.3.7.3 1.1v.4c0 .2-.1.4-.2.8l-.2.5-.3.4-1.9 2.8h-.5l1.6-2.4c.2-.2.3-.4.4-.6l.2-.3c.1-.1.1-.2.1-.3.2-.3.3-.7.3-1.1 0-.4-.1-.7-.3-1-.2-.3-.4-.6-.7-.8-.3-.2-.7-.3-1.1-.3-.3 0-.5.1-.8.2s-.4.3-.6.5-.3.4-.4.7c0 0 0 .1-.1.2 0 .1 0 .1-.1.2v.4c0 .3 0 .5.1.7s.2.5.4.7c.2.2.4.3.7.4l.4.1h.8s.6-.4.7-.4zM178 13.1l-.3.4c-.1 0-.3.1-.6.1-.2 0-.4 0-.6-.1l-.3-.1-.3-.1c-.4-.2-.7-.5-.9-.9s-.4-.9-.4-1.4v-.4c0-.2.1-.3.2-.5l.3-.4.3-.3c.2-.2.5-.3.8-.4l.4-.1h.7c.4 0 .8.2 1.1.4.3.2.6.5.8.9.2.3.3.7.3 1.1v.4c0 .2-.1.4-.2.8l-.2.5-.3.4-1.9 2.8h-.5l1.6-2.4c.2-.2.3-.4.4-.6l.2-.3c.1-.1.1-.2.1-.3.2-.3.3-.7.3-1.1 0-.4-.1-.7-.3-1-.2-.3-.4-.6-.7-.8-.3-.2-.7-.3-1.1-.3-.3 0-.5.1-.8.2s-.4.3-.6.5-.3.4-.4.7c0 0 0 .1-.1.2 0 .1 0 .1-.1.2v.4c0 .3 0 .5.1.7s.2.5.4.7c.2.2.4.3.7.4l.4.1h.8s.6-.4.7-.4zM180.8 8.9h4.3c.4 0 .5.2.5.5 0 .1 0 .2-.1.4l-2.7 6.2h-.5l2.8-6.3.1-.2c0-.1 0-.1-.1-.1h-4.4v-.5z"/><linearGradient id="SVGID_1_" gradientUnits="userSpaceOnUse" x1="28.152" y1="19.199" x2="14.747" y2="54.12"><stop offset="0" stop-color="#25412E"/><stop offset=".492" stop-color="#E9DF14"/><stop offset=".497" stop-color="#EDE30F"/><stop offset=".551" stop-color="#ECDF12"/><stop offset=".613" stop-color="#E9D418"/><stop offset=".68" stop-color="#E4C31F"/><stop offset=".75" stop-color="#DEAB24"/><stop offset=".822" stop-color="#D68D27"/><stop offset=".896" stop-color="#CF6C28"/><stop offset=".903" stop-color="#CF6828"/></linearGradient><path class="st2" d="M38.9 28.7c-.5-4.1-4.3-11.7-26.9-9.9l-1.4 33.7h10.1v-7.1s16.3-2.4 17.9-11.9c.3-.8.5-3.3.3-4.8zm-11.9 2.4c-1.2 4.1-5.2 3.8-5.2 3.8v-7.6c6.8-.5 5.2 3.8 5.2 3.8z"/><linearGradient id="SVGID_2_" gradientUnits="userSpaceOnUse" x1="66.7" y1="15.403" x2="51.284" y2="55.564"><stop offset="0" stop-color="#25412E"/><stop offset=".091" stop-color="#2A4430"/><stop offset=".214" stop-color="#3A4F33"/><stop offset=".355" stop-color="#546336"/><stop offset=".51" stop-color="#7C8438"/><stop offset=".673" stop-color="#B9B62F"/><stop offset=".772" stop-color="#EDE30F"/><stop offset=".796" stop-color="#EBDC14"/><stop offset=".832" stop-color="#E6CD1B"/><stop offset=".877" stop-color="#DFB423"/><stop offset=".927" stop-color="#D79227"/><stop offset=".982" stop-color="#CE6A29"/><stop offset="1" stop-color="#CC5B29"/></linearGradient><path class="st3" d="M43.1 18.6h10.7v12.3h10.4v-12.3h10.7v33.8h-11v-10.9h-9.9v10.9h-10.9z"/><linearGradient id="SVGID_3_" gradientUnits="userSpaceOnUse" x1="104.581" y1="14.67" x2="90.219" y2="52.086"><stop offset="0" stop-color="#25412E"/><stop offset=".189" stop-color="#28422F"/><stop offset=".342" stop-color="#314931"/><stop offset=".482" stop-color="#405434"/><stop offset=".614" stop-color="#566537"/><stop offset=".741" stop-color="#757E38"/><stop offset=".864" stop-color="#A2A334"/><stop offset=".982" stop-color="#DFD61C"/><stop offset="1" stop-color="#EDE30F"/></linearGradient><path class="st4" d="M111.5 27.3l6.3-7.1-7.4-3.3-1.1 7.3c-3.2-3.5-7.7-5.7-12.8-5.7-9.6 0-17.3 7.8-17.3 17.3s7.8 17.3 17.3 17.3c9.6 0 17.3-7.8 17.3-17.3 0-3-.9-6-2.3-8.5zm-8 9.6c-1 5.1-4.8 8.7-8.4 8-3.7-.7-5.8-5.4-4.9-10.5 1-5.1 4.8-8.7 8.4-8 3.7.6 5.9 5.4 4.9 10.5z"/><linearGradient id="SVGID_4_" gradientUnits="userSpaceOnUse" x1="94.495" y1="16.376" x2="99.173" y2="6.344"><stop offset="0" stop-color="#25412E"/><stop offset=".342" stop-color="#27422F"/><stop offset=".493" stop-color="#2D4630"/><stop offset=".606" stop-color="#394E32"/><stop offset=".7" stop-color="#495A35"/><stop offset=".782" stop-color="#5F6C37"/><stop offset=".857" stop-color="#7D8538"/><stop offset=".925" stop-color="#A6A634"/><stop offset=".986" stop-color="#DBD31F"/><stop offset="1" stop-color="#EDE30F"/></linearGradient><path class="st5" d="M95.7 16.6l2.6 1.6s3.1-2.1 4.9-3.8c.5-.5.9-1 1.1-1.4 0 0 4.1-9-14.2-4.4l2.5 4.4s3.9-2.2 5.4-.7c1.8 1.8-2.3 4.3-2.3 4.3z"/><linearGradient id="SVGID_5_" gradientUnits="userSpaceOnUse" x1="137.524" y1="48.448" x2="153.509" y2="18.385"><stop offset="0" stop-color="#25412E"/><stop offset=".095" stop-color="#2B4530"/><stop offset=".231" stop-color="#3C5133"/><stop offset=".391" stop-color="#586737"/><stop offset=".57" stop-color="#858C38"/><stop offset=".762" stop-color="#CBC628"/><stop offset=".827" stop-color="#EDE30F"/></linearGradient><path class="st6" d="M160.2 27.1c-.1-.3-.2-.8-.2-.8-1.2-5.4-6.7-9.5-13.5-9.5-7.6 0-13.7 5.2-13.7 11.6 0 6.1 6.3 11.5 14.3 10.8 0 0-6 4.3-7.8 5.3l6.6 8.5c0-.1 18.3-9.9 14.3-25.9zm-10.9 6c-4.6.3-5.7-1.5-6-3.2-.1-.8 0-1.7.1-2.3.1-.4.7-1.1.8-1.3.6-.5 1.2-.7 1.5-.8 5.4-1.3 3.6 7.6 3.6 7.6z"/><linearGradient id="SVGID_6_" gradientUnits="userSpaceOnUse" x1="167.023" y1="48.448" x2="183.008" y2="18.385"><stop offset="0" stop-color="#25412E"/><stop offset=".117" stop-color="#5C6A37"/><stop offset=".227" stop-color="#919537"/><stop offset=".323" stop-color="#BFBB2D"/><stop offset=".401" stop-color="#DED51D"/><stop offset=".452" stop-color="#EDE30F"/><stop offset=".51" stop-color="#EBDC14"/><stop offset=".598" stop-color="#E6CD1B"/><stop offset=".704" stop-color="#DFB423"/><stop offset=".826" stop-color="#D79227"/><stop offset=".958" stop-color="#CE6A29"/><stop offset="1" stop-color="#CC5B29"/></linearGradient><path class="st7" d="M189.7 27.1c-.1-.3-.2-.8-.2-.8-1.2-5.4-6.7-9.5-13.5-9.5-7.6 0-13.7 5.2-13.7 11.6 0 6.1 6.3 11.5 14.3 10.8 0 0-6 4.3-7.8 5.3l6.6 8.5c0-.1 18.3-9.9 14.3-25.9zm-10.9 6c-4.6.3-5.7-1.5-6-3.2-.1-.8 0-1.7.1-2.3.1-.4.7-1.1.8-1.3.6-.5 1.2-.7 1.5-.8 5.4-1.3 3.6 7.6 3.6 7.6z"/><ellipse class="st8" cx="96.7" cy="35.5" rx="13" ry="13"/><path class="st9" d="M15.8 46.2l.3-6.4 1-17.8s17.8-1.8 15.7 10c0 0-2.7 8.2-16.4 7.2M47.7 23l-.1 25.2M70.2 23v25.2"/><path class="st10" d="M47.6 35.6l22.6.1"/><path class="st9" d="M113.5 20.4l-2.8 5.9M94 9.8s5.3-1.4 6.7 0c0 0 3.3 1.5-1.9 6.2M153.4 35.9s-17.7.6-13.6-11.3c.3-.8 2.3-2.9 4-3.1 3.5-.4 9.2 0 10.4 6.4 0 0 2.3 8.8-7.5 17.5M182.9 35.9s-17.7.6-13.6-11.3c.3-.8 2.3-2.9 4-3.1 3.5-.4 9.2 0 10.4 6.4 0 0 2.3 8.8-7.5 17.5"/><linearGradient id="SVGID_7_" gradientUnits="userSpaceOnUse" x1="185.277" y1="53.552" x2="188.282" y2="47.901"><stop offset="0" stop-color="#25412E"/><stop offset=".091" stop-color="#2B4530"/><stop offset=".222" stop-color="#3C5133"/><stop offset=".376" stop-color="#586737"/><stop offset=".548" stop-color="#858C38"/><stop offset=".734" stop-color="#CBC628"/><stop offset=".797" stop-color="#EDE30F"/><stop offset=".819" stop-color="#EBDC14"/><stop offset=".851" stop-color="#E6CD1B"/><stop offset=".89" stop-color="#DFB423"/><stop offset=".935" stop-color="#D79227"/><stop offset=".984" stop-color="#CE6A29"/><stop offset="1" stop-color="#CC5B29"/></linearGradient><path class="st11" d="M188.6 53.2h-3.7c-.6 0-1-.5-1-1v-3c0-.6.5-1 1-1h3.7c.6 0 1 .5 1 1v3c0 .6-.4 1-1 1z"/></svg>