<?xml version="1.0" encoding="utf-8"?>
<!-- Generator: Adobe Illustrator 18.1.1, SVG Export Plug-In . SVG Version: 6.00 Build 0)  -->
<!DOCTYPE svg PUBLIC "-//W3C//DTD SVG 1.1//EN" "http://www.w3.org/Graphics/SVG/1.1/DTD/svg11.dtd">
<svg version="1.1" id="Graphics" xmlns="http://www.w3.org/2000/svg" xmlns:xlink="http://www.w3.org/1999/xlink" x="0px" y="0px"
	 width="202.8px" height="60.5px" viewBox="0 0 202.8 60.5" style="enable-background:new 0 0 202.8 60.5;" xml:space="preserve">
<style type="text/css">
	.st0{fill:none;}
	.st1{fill:#ECE310;stroke:#010101;stroke-width:7.713000e-02;stroke-miterlimit:10;}
	.st2{fill:url(#SVGID_1_);}
	.st3{fill:url(#SVGID_2_);}
	.st4{fill:url(#SVGID_3_);}
	.st5{fill:url(#SVGID_4_);}
	.st6{fill:url(#SVGID_5_);}
	.st7{fill:url(#SVGID_6_);}
	.st8{fill:none;stroke:#FFFFFF;stroke-width:0.581;stroke-miterlimit:10;}
	.st9{fill:none;stroke:#FFFFFF;stroke-width:0.7744;stroke-miterlimit:10;}
	.st10{fill:none;stroke:#FFFFFF;stroke-width:0.7311;stroke-miterlimit:10;}
	.st11{fill:url(#SVGID_7_);}
</style>
<g>
	<g>
		<rect x="10.6" y="8.9" class="st0" width="181.5" height="19.4"/>
		<path class="st1" d="M11.7,15.9h-0.4v-4.8c0-0.4,0.1-0.7,0.2-1.1c0.1-0.4,0.3-0.7,0.7-0.9c0.3-0.2,0.7-0.4,1.2-0.4
			c0.5,0,1,0.1,1.3,0.3c0.3,0.2,0.6,0.4,0.7,0.7s0.2,0.5,0.2,0.8c0,0.4-0.1,0.8-0.3,1.1s-0.5,0.6-0.9,0.7c0.4,0.1,0.8,0.2,1,0.6
			c0.2,0.3,0.3,0.6,0.3,1v2h-0.4v-2.1c0-0.3-0.1-0.5-0.2-0.7C15,13,14.9,13,14.8,12.9c-0.1-0.1-0.2-0.1-0.4-0.2
			c-0.1,0-0.3-0.1-0.5-0.1c-0.2,0-0.4,0-0.6,0h-1.3v-0.4h1.2c0.4,0,0.7-0.1,1-0.2c0.3-0.1,0.4-0.3,0.6-0.6c0.1-0.2,0.2-0.5,0.2-0.8
			c0-0.3-0.1-0.5-0.2-0.8c-0.1-0.2-0.3-0.4-0.6-0.6c-0.3-0.1-0.6-0.2-1-0.2c-0.2,0-0.4,0-0.6,0.1c-0.2,0.1-0.4,0.2-0.5,0.3
			c-0.3,0.3-0.5,0.8-0.5,1.5V15.9z"/>
		<path class="st1" d="M22.6,8.9v0.4H22c-0.7,0-1.3,0.1-1.8,0.4c-0.5,0.3-0.9,0.6-1.1,1.1c-0.1,0.2-0.2,0.5-0.3,0.7
			c-0.1,0.2-0.1,0.5-0.1,0.7h3.9v0.3h-3.9c0,0.6,0.2,1.2,0.5,1.6c0.3,0.5,0.7,0.8,1.2,1.1c0.2,0.1,0.5,0.2,0.8,0.3
			c0.1,0,0.3,0.1,0.4,0.1c0.1,0,0.3,0,0.4,0h0.7v0.4h-0.8c-0.4,0-0.8-0.1-1.2-0.2c-0.4-0.1-0.8-0.3-1.1-0.6
			c-0.3-0.3-0.6-0.7-0.9-1.2c-0.2-0.5-0.3-1.1-0.3-1.7c0-0.2,0-0.5,0.1-0.7c0-0.1,0.1-0.3,0.1-0.4c0-0.1,0.1-0.2,0.2-0.4
			c0.2-0.5,0.7-0.9,1.2-1.3s1.3-0.6,2.2-0.6H22.6z"/>
		<path class="st1" d="M29.5,8.9v0.4h-2c-0.8,0-1.3,0.1-1.5,0.3c-0.1,0.1-0.2,0.2-0.3,0.4c-0.1,0.2-0.1,0.3-0.1,0.5c0,0,0,0.1,0,0.1
			c0,0.2,0.1,0.4,0.2,0.6c0.2,0.2,0.3,0.3,0.6,0.4c0.2,0.1,0.5,0.2,0.7,0.3l0.8,0.2c0.2,0.1,0.4,0.1,0.6,0.2s0.3,0.2,0.5,0.2
			c0.3,0.2,0.5,0.4,0.6,0.6c0.1,0.1,0.1,0.3,0.1,0.4c0,0.1,0,0.3,0,0.5v0.2c-0.1,0.5-0.3,0.9-0.6,1.1c-0.2,0.1-0.4,0.2-0.7,0.3
			c-0.3,0.1-0.6,0.1-1,0.1h-0.2h-2.1v-0.4h2.1h0.1h0.1c0.7,0,1.1-0.1,1.4-0.4s0.5-0.5,0.5-0.8c0-0.4-0.1-0.7-0.3-0.9
			s-0.4-0.4-0.6-0.5c-0.1-0.1-0.3-0.1-0.5-0.2s-0.4-0.1-0.7-0.2l-0.9-0.3c-0.3-0.1-0.6-0.3-0.8-0.5c-0.3-0.2-0.4-0.5-0.5-0.9v-0.2
			l0-0.1c0-0.5,0.2-0.9,0.5-1.2s0.9-0.4,1.5-0.4h0.1h0.1H29.5z"/>
		<path class="st1" d="M36.6,8.9v0.4h-2v6.7h-0.4V9.2h-2V8.9H36.6z"/>
		<path class="st1" d="M39.4,15.9H39v-4.8c0-0.4,0.1-0.8,0.3-1.2s0.4-0.7,0.8-0.9c0.4-0.2,0.8-0.3,1.4-0.3c0.2,0,0.4,0,0.6,0
			c0.1,0,0.2,0,0.3,0.1c0.1,0,0.2,0,0.2,0.1C42.8,9,43,9.2,43.2,9.4c0.2,0.2,0.4,0.5,0.5,0.8c0.1,0.3,0.2,0.6,0.2,0.9v4.8h-0.4v-3.4
			h-3.6v-0.4h3.6V11c0-0.3-0.1-0.6-0.3-0.9c-0.1-0.3-0.4-0.5-0.7-0.7c-0.3-0.2-0.7-0.2-1.1-0.2c-0.4,0-0.7,0.1-1,0.2
			c-0.3,0.1-0.5,0.4-0.7,0.6c-0.2,0.3-0.3,0.6-0.3,1V15.9z"/>
		<path class="st1" d="M47.3,8.9v4.8c0,0.6,0.2,1.1,0.5,1.5c0.3,0.4,0.9,0.5,1.5,0.5c0.4,0,0.7-0.1,1-0.2c0.3-0.2,0.5-0.4,0.7-0.7
			c0.2-0.3,0.3-0.7,0.3-1.1V8.9h0.4v4.6c0,0.4-0.1,0.8-0.2,1.2c-0.1,0.4-0.4,0.7-0.7,1c-0.2,0.1-0.4,0.2-0.6,0.3
			C49.9,16,49.7,16,49.4,16c-0.5,0-1-0.1-1.3-0.3s-0.7-0.5-0.9-0.9c-0.2-0.4-0.3-0.9-0.3-1.4V8.9H47.3z"/>
		<path class="st1" d="M55.2,15.9h-0.4v-4.8c0-0.4,0.1-0.7,0.2-1.1c0.1-0.4,0.3-0.7,0.7-0.9c0.3-0.2,0.7-0.4,1.2-0.4
			c0.5,0,1,0.1,1.3,0.3c0.3,0.2,0.6,0.4,0.7,0.7s0.2,0.5,0.2,0.8c0,0.4-0.1,0.8-0.3,1.1s-0.5,0.6-0.9,0.7c0.4,0.1,0.8,0.2,1,0.6
			c0.2,0.3,0.3,0.6,0.3,1v2h-0.4v-2.1c0-0.3-0.1-0.5-0.2-0.7c-0.1-0.1-0.2-0.2-0.2-0.2c-0.1-0.1-0.2-0.1-0.4-0.2
			c-0.1,0-0.3-0.1-0.5-0.1c-0.2,0-0.4,0-0.6,0h-1.3v-0.4h1.2c0.4,0,0.7-0.1,1-0.2c0.3-0.1,0.4-0.3,0.6-0.6c0.1-0.2,0.2-0.5,0.2-0.8
			c0-0.3-0.1-0.5-0.2-0.8c-0.1-0.2-0.3-0.4-0.6-0.6c-0.3-0.1-0.6-0.2-1-0.2c-0.2,0-0.4,0-0.6,0.1c-0.2,0.1-0.4,0.2-0.5,0.3
			c-0.3,0.3-0.5,0.8-0.5,1.5V15.9z"/>
		<path class="st1" d="M62.5,15.9h-0.4v-4.8c0-0.4,0.1-0.8,0.3-1.2s0.4-0.7,0.8-0.9c0.4-0.2,0.8-0.3,1.4-0.3c0.2,0,0.4,0,0.6,0
			c0.1,0,0.2,0,0.3,0.1c0.1,0,0.2,0,0.2,0.1c0.3,0.1,0.6,0.3,0.8,0.5c0.2,0.2,0.4,0.5,0.5,0.8c0.1,0.3,0.2,0.6,0.2,0.9v4.8h-0.4
			v-3.4h-3.6v-0.4h3.6V11c0-0.3-0.1-0.6-0.3-0.9c-0.1-0.3-0.4-0.5-0.7-0.7c-0.3-0.2-0.7-0.2-1.1-0.2c-0.4,0-0.7,0.1-1,0.2
			C63.2,9.5,63,9.7,62.8,10c-0.2,0.3-0.3,0.6-0.3,1V15.9z"/>
		<path class="st1" d="M70.5,15.9H70V9.3c0-0.3,0.2-0.5,0.5-0.6c0.3,0,0.5,0.1,0.7,0.4l2.9,6.2l0,0.1l0.1,0.1c0,0,0.1,0.1,0.1,0.1
			c0.1,0,0.1-0.1,0.1-0.3V8.7h0.4v6.7c0,0.2,0,0.3-0.1,0.4c-0.1,0.1-0.2,0.1-0.4,0.1c-0.3,0-0.5-0.2-0.7-0.5l-2.9-6.1
			c0-0.1-0.1-0.2-0.1-0.2c0,0-0.1-0.1-0.2-0.1c-0.1,0-0.1,0.1-0.1,0.2V15.9z"/>
		<path class="st1" d="M81.7,8.9v0.4h-2v6.7h-0.4V9.2h-2V8.9H81.7z"/>
		<path class="st1" d="M136.8,8.9v0.4h-2c-0.8,0-1.3,0.1-1.5,0.3c-0.1,0.1-0.2,0.2-0.3,0.4c-0.1,0.2-0.1,0.3-0.1,0.5
			c0,0,0,0.1,0,0.1c0,0.2,0.1,0.4,0.2,0.6c0.2,0.2,0.3,0.3,0.6,0.4c0.2,0.1,0.5,0.2,0.7,0.3l0.8,0.2c0.2,0.1,0.4,0.1,0.6,0.2
			s0.3,0.2,0.5,0.2c0.3,0.2,0.5,0.4,0.6,0.6c0.1,0.1,0.1,0.3,0.1,0.4c0,0.1,0,0.3,0,0.5v0.2c-0.1,0.5-0.3,0.9-0.6,1.1
			c-0.2,0.1-0.4,0.2-0.7,0.3c-0.3,0.1-0.6,0.1-1,0.1h-0.2h-2.1v-0.4h2.1h0.1h0.1c0.7,0,1.1-0.1,1.4-0.4s0.5-0.5,0.5-0.8
			c0-0.4-0.1-0.7-0.3-0.9s-0.4-0.4-0.6-0.5c-0.1-0.1-0.3-0.1-0.5-0.2s-0.4-0.1-0.7-0.2l-0.9-0.3c-0.3-0.1-0.6-0.3-0.8-0.5
			c-0.3-0.2-0.4-0.5-0.5-0.9v-0.2l0-0.1c0-0.5,0.2-0.9,0.5-1.2s0.9-0.4,1.5-0.4h0.1h0.1H136.8z"/>
		<path class="st1" d="M139.5,8.9v7h-0.4v-7H139.5z"/>
		<path class="st1" d="M142.1,15.9h-0.4V9.3c0-0.3,0.2-0.5,0.5-0.6c0.3,0,0.5,0.1,0.7,0.4l2.9,6.2l0,0.1l0.1,0.1
			c0,0,0.1,0.1,0.1,0.1c0.1,0,0.1-0.1,0.1-0.3V8.7h0.4v6.7c0,0.2,0,0.3-0.1,0.4c-0.1,0.1-0.2,0.1-0.4,0.1c-0.3,0-0.5-0.2-0.7-0.5
			l-2.9-6.1c0-0.1-0.1-0.2-0.1-0.2c0,0-0.1-0.1-0.2-0.1c-0.1,0-0.1,0.1-0.1,0.2V15.9z"/>
		<path class="st1" d="M152.5,8.9v0.4h-0.9c-0.3,0-0.5,0-0.7,0.1c-0.2,0-0.4,0.1-0.6,0.2c-0.4,0.2-0.7,0.4-1,0.7
			c-0.3,0.3-0.5,0.6-0.6,1c0,0.1-0.1,0.2-0.1,0.3s-0.1,0.2-0.1,0.3c0,0.2-0.1,0.4-0.1,0.6c0,0.9,0.3,1.6,0.8,2.2
			c0.3,0.3,0.6,0.5,1,0.7c0.4,0.2,0.9,0.3,1.4,0.3h0.8v0.4h-0.8c-0.2,0-0.5,0-0.7-0.1c-0.2,0-0.4-0.1-0.6-0.2
			c-0.4-0.2-0.8-0.4-1.1-0.7s-0.6-0.7-0.8-1.2c-0.1-0.2-0.2-0.5-0.2-0.7c0-0.1,0-0.3-0.1-0.4s0-0.3,0-0.4c0-0.4,0.1-0.8,0.2-1.2
			c0.1-0.3,0.3-0.6,0.5-0.9c0.4-0.5,0.9-0.9,1.4-1s1-0.3,1.4-0.3H152.5z"/>
		<path class="st1" d="M157.8,8.9v0.4h-0.6c-0.7,0-1.3,0.1-1.8,0.4c-0.5,0.3-0.9,0.6-1.1,1.1c-0.1,0.2-0.2,0.5-0.3,0.7
			c-0.1,0.2-0.1,0.5-0.1,0.7h3.9v0.3h-3.9c0,0.6,0.2,1.2,0.5,1.6c0.3,0.5,0.7,0.8,1.2,1.1c0.2,0.1,0.5,0.2,0.8,0.3
			c0.1,0,0.3,0.1,0.4,0.1c0.1,0,0.3,0,0.4,0h0.7v0.4H157c-0.4,0-0.8-0.1-1.2-0.2c-0.4-0.1-0.8-0.3-1.1-0.6c-0.3-0.3-0.6-0.7-0.9-1.2
			c-0.2-0.5-0.3-1.1-0.3-1.7c0-0.2,0-0.5,0.1-0.7c0-0.1,0.1-0.3,0.1-0.4c0-0.1,0.1-0.2,0.2-0.4c0.2-0.5,0.7-0.9,1.2-1.3
			s1.3-0.6,2.2-0.6H157.8z"/>
		<path class="st1" d="M165.1,8.9v7h-0.4l0-6.7h-1.2l0.1-0.4H165.1z"/>
		<path class="st1" d="M171.9,13.1l-0.3,0.4c-0.1,0-0.3,0.1-0.6,0.1c-0.2,0-0.4,0-0.6-0.1c-0.1,0-0.2-0.1-0.3-0.1
			c-0.1,0-0.2-0.1-0.3-0.1c-0.4-0.2-0.7-0.5-0.9-0.9s-0.4-0.9-0.4-1.4c0-0.1,0-0.2,0-0.2c0-0.1,0-0.2,0-0.2c0-0.2,0.1-0.3,0.2-0.5
			c0.1-0.1,0.2-0.3,0.3-0.4s0.2-0.2,0.3-0.3c0.2-0.2,0.5-0.3,0.8-0.4c0.1,0,0.3-0.1,0.4-0.1c0.1,0,0.3,0,0.4,0h0.1l0.2,0
			c0.4,0,0.8,0.2,1.1,0.4c0.3,0.2,0.6,0.5,0.8,0.9c0.2,0.3,0.3,0.7,0.3,1.1v0.1c0,0.1,0,0.2,0,0.3c0,0.2-0.1,0.4-0.2,0.8
			c-0.1,0.2-0.1,0.3-0.2,0.5c-0.1,0.1-0.2,0.3-0.3,0.4l-1.9,2.8l-0.5,0l1.6-2.4c0.2-0.2,0.3-0.4,0.4-0.6c0.1-0.1,0.1-0.2,0.2-0.3
			c0.1-0.1,0.1-0.2,0.1-0.3c0.2-0.3,0.3-0.7,0.3-1.1c0-0.4-0.1-0.7-0.3-1c-0.2-0.3-0.4-0.6-0.7-0.8c-0.3-0.2-0.7-0.3-1.1-0.3
			c-0.3,0-0.5,0.1-0.8,0.2s-0.4,0.3-0.6,0.5s-0.3,0.4-0.4,0.7c0,0,0,0.1-0.1,0.2c0,0.1,0,0.1-0.1,0.2c0,0.1,0,0.3,0,0.4
			c0,0.3,0,0.5,0.1,0.7s0.2,0.5,0.4,0.7c0.2,0.2,0.4,0.3,0.7,0.4l0.4,0.1c0.1,0,0.3,0,0.4,0c0.2,0,0.3,0,0.4,0
			S171.8,13.1,171.9,13.1z"/>
		<path class="st1" d="M178,13.1l-0.3,0.4c-0.1,0-0.3,0.1-0.6,0.1c-0.2,0-0.4,0-0.6-0.1c-0.1,0-0.2-0.1-0.3-0.1
			c-0.1,0-0.2-0.1-0.3-0.1c-0.4-0.2-0.7-0.5-0.9-0.9s-0.4-0.9-0.4-1.4c0-0.1,0-0.2,0-0.2c0-0.1,0-0.2,0-0.2c0-0.2,0.1-0.3,0.2-0.5
			c0.1-0.1,0.2-0.3,0.3-0.4s0.2-0.2,0.3-0.3c0.2-0.2,0.5-0.3,0.8-0.4c0.1,0,0.3-0.1,0.4-0.1c0.1,0,0.3,0,0.4,0h0.1l0.2,0
			c0.4,0,0.8,0.2,1.1,0.4c0.3,0.2,0.6,0.5,0.8,0.9c0.2,0.3,0.3,0.7,0.3,1.1v0.1c0,0.1,0,0.2,0,0.3c0,0.2-0.1,0.4-0.2,0.8
			c-0.1,0.2-0.1,0.3-0.2,0.5c-0.1,0.1-0.2,0.3-0.3,0.4l-1.9,2.8l-0.5,0l1.6-2.4c0.2-0.2,0.3-0.4,0.4-0.6c0.1-0.1,0.1-0.2,0.2-0.3
			c0.1-0.1,0.1-0.2,0.1-0.3c0.2-0.3,0.3-0.7,0.3-1.1c0-0.4-0.1-0.7-0.3-1c-0.2-0.3-0.4-0.6-0.7-0.8c-0.3-0.2-0.7-0.3-1.1-0.3
			c-0.3,0-0.5,0.1-0.8,0.2s-0.4,0.3-0.6,0.5s-0.3,0.4-0.4,0.7c0,0,0,0.1-0.1,0.2c0,0.1,0,0.1-0.1,0.2c0,0.1,0,0.3,0,0.4
			c0,0.3,0,0.5,0.1,0.7s0.2,0.5,0.4,0.7c0.2,0.2,0.4,0.3,0.7,0.4l0.4,0.1c0.1,0,0.3,0,0.4,0c0.2,0,0.3,0,0.4,0S177.9,13.1,178,13.1z
			"/>
		<path class="st1" d="M180.8,8.9h4.3c0.4,0,0.5,0.2,0.5,0.5c0,0.1,0,0.2-0.1,0.4l-2.7,6.2l-0.5,0l2.8-6.3l0.1-0.2
			c0-0.1,0-0.1-0.1-0.1c-0.1,0-0.2,0-0.4,0h-4V8.9z"/>
	</g>
	<linearGradient id="SVGID_1_" gradientUnits="userSpaceOnUse" x1="28.1519" y1="19.1993" x2="14.7471" y2="54.12">
		<stop  offset="0" style="stop-color:#25412E"/>
		<stop  offset="0.4919" style="stop-color:#E9DF14"/>
		<stop  offset="0.4974" style="stop-color:#EDE30F"/>
		<stop  offset="0.5508" style="stop-color:#ECDF12"/>
		<stop  offset="0.6131" style="stop-color:#E9D418"/>
		<stop  offset="0.6798" style="stop-color:#E4C31F"/>
		<stop  offset="0.7498" style="stop-color:#DEAB24"/>
		<stop  offset="0.8222" style="stop-color:#D68D27"/>
		<stop  offset="0.8956" style="stop-color:#CF6C28"/>
		<stop  offset="0.9035" style="stop-color:#CF6828"/>
	</linearGradient>
	<path class="st2" d="M38.9,28.7c-0.5-4.1-4.3-11.7-26.9-9.9l-1.4,33.7h10.1v-7.1c0,0,16.3-2.4,17.9-11.9
		C38.9,32.7,39.1,30.2,38.9,28.7z M27,31.1c-1.2,4.1-5.2,3.8-5.2,3.8v-7.6C28.6,26.8,27,31.1,27,31.1z"/>
	<linearGradient id="SVGID_2_" gradientUnits="userSpaceOnUse" x1="66.6999" y1="15.403" x2="51.2836" y2="55.5639">
		<stop  offset="0" style="stop-color:#25412E"/>
		<stop  offset="9.121542e-02" style="stop-color:#2A4430"/>
		<stop  offset="0.2141" style="stop-color:#3A4F33"/>
		<stop  offset="0.3551" style="stop-color:#546336"/>
		<stop  offset="0.5096" style="stop-color:#7C8438"/>
		<stop  offset="0.673" style="stop-color:#B9B62F"/>
		<stop  offset="0.7716" style="stop-color:#EDE30F"/>
		<stop  offset="0.7958" style="stop-color:#EBDC14"/>
		<stop  offset="0.8324" style="stop-color:#E6CD1B"/>
		<stop  offset="0.8768" style="stop-color:#DFB423"/>
		<stop  offset="0.9274" style="stop-color:#D79227"/>
		<stop  offset="0.9824" style="stop-color:#CE6A29"/>
		<stop  offset="1" style="stop-color:#CC5B29"/>
	</linearGradient>
	<polygon class="st3" points="43.1,18.6 53.8,18.6 53.8,30.9 64.2,30.9 64.2,18.6 74.9,18.6 74.9,52.4 63.9,52.4 63.9,41.5 54,41.5 
		54,52.4 43.1,52.4 	"/>
	<linearGradient id="SVGID_3_" gradientUnits="userSpaceOnUse" x1="104.5813" y1="14.6696" x2="90.2188" y2="52.0855">
		<stop  offset="0" style="stop-color:#25412E"/>
		<stop  offset="0.1891" style="stop-color:#28422F"/>
		<stop  offset="0.3418" style="stop-color:#314931"/>
		<stop  offset="0.4818" style="stop-color:#405434"/>
		<stop  offset="0.6142" style="stop-color:#566537"/>
		<stop  offset="0.7414" style="stop-color:#757E38"/>
		<stop  offset="0.8644" style="stop-color:#A2A334"/>
		<stop  offset="0.9822" style="stop-color:#DFD61C"/>
		<stop  offset="1" style="stop-color:#EDE30F"/>
	</linearGradient>
	<path class="st4" d="M111.5,27.3l6.3-7.1l-7.4-3.3l-1.1,7.3l0,0c-3.2-3.5-7.7-5.7-12.8-5.7c-9.6,0-17.3,7.8-17.3,17.3
		s7.8,17.3,17.3,17.3c9.6,0,17.3-7.8,17.3-17.3C113.8,32.8,112.9,29.8,111.5,27.3L111.5,27.3z M103.5,36.9c-1,5.1-4.8,8.7-8.4,8
		c-3.7-0.7-5.8-5.4-4.9-10.5c1-5.1,4.8-8.7,8.4-8C102.3,27,104.5,31.8,103.5,36.9z"/>
	<linearGradient id="SVGID_4_" gradientUnits="userSpaceOnUse" x1="94.495" y1="16.3758" x2="99.1731" y2="6.3437">
		<stop  offset="0" style="stop-color:#25412E"/>
		<stop  offset="0.3421" style="stop-color:#27422F"/>
		<stop  offset="0.4926" style="stop-color:#2D4630"/>
		<stop  offset="0.6055" style="stop-color:#394E32"/>
		<stop  offset="0.6997" style="stop-color:#495A35"/>
		<stop  offset="0.7822" style="stop-color:#5F6C37"/>
		<stop  offset="0.8565" style="stop-color:#7D8538"/>
		<stop  offset="0.9247" style="stop-color:#A6A634"/>
		<stop  offset="0.9863" style="stop-color:#DBD31F"/>
		<stop  offset="1" style="stop-color:#EDE30F"/>
	</linearGradient>
	<path class="st5" d="M95.7,16.6l2.6,1.6c0,0,3.1-2.1,4.9-3.8c0.5-0.5,0.9-1,1.1-1.4c0,0,4.1-9-14.2-4.4l2.5,4.4
		c0,0,3.9-2.2,5.4-0.7C99.8,14.1,95.7,16.6,95.7,16.6z"/>
	<linearGradient id="SVGID_5_" gradientUnits="userSpaceOnUse" x1="137.5245" y1="48.4482" x2="153.5094" y2="18.3849">
		<stop  offset="0" style="stop-color:#25412E"/>
		<stop  offset="9.490226e-02" style="stop-color:#2B4530"/>
		<stop  offset="0.2305" style="stop-color:#3C5133"/>
		<stop  offset="0.3907" style="stop-color:#586737"/>
		<stop  offset="0.5695" style="stop-color:#858C38"/>
		<stop  offset="0.7616" style="stop-color:#CBC628"/>
		<stop  offset="0.8274" style="stop-color:#EDE30F"/>
	</linearGradient>
	<path class="st6" d="M160.2,27.1c-0.1-0.3-0.2-0.8-0.2-0.8c-1.2-5.4-6.7-9.5-13.5-9.5c-7.6,0-13.7,5.2-13.7,11.6
		c0,6.1,6.3,11.5,14.3,10.8c0,0-6,4.3-7.8,5.3l6.6,8.5C145.9,52.9,164.2,43.1,160.2,27.1z M149.3,33.1c-4.6,0.3-5.7-1.5-6-3.2
		c-0.1-0.8,0-1.7,0.1-2.3c0.1-0.4,0.7-1.1,0.8-1.3c0.6-0.5,1.2-0.7,1.5-0.8C151.1,24.2,149.3,33.1,149.3,33.1z"/>
	<linearGradient id="SVGID_6_" gradientUnits="userSpaceOnUse" x1="167.0228" y1="48.4482" x2="183.0077" y2="18.3849">
		<stop  offset="0" style="stop-color:#25412E"/>
		<stop  offset="0.1173" style="stop-color:#5C6A37"/>
		<stop  offset="0.2271" style="stop-color:#919537"/>
		<stop  offset="0.3229" style="stop-color:#BFBB2D"/>
		<stop  offset="0.401" style="stop-color:#DED51D"/>
		<stop  offset="0.4518" style="stop-color:#EDE30F"/>
		<stop  offset="0.5099" style="stop-color:#EBDC14"/>
		<stop  offset="0.5977" style="stop-color:#E6CD1B"/>
		<stop  offset="0.7044" style="stop-color:#DFB423"/>
		<stop  offset="0.8257" style="stop-color:#D79227"/>
		<stop  offset="0.9579" style="stop-color:#CE6A29"/>
		<stop  offset="1" style="stop-color:#CC5B29"/>
	</linearGradient>
	<path class="st7" d="M189.7,27.1c-0.1-0.3-0.2-0.8-0.2-0.8c-1.2-5.4-6.7-9.5-13.5-9.5c-7.6,0-13.7,5.2-13.7,11.6
		c0,6.1,6.3,11.5,14.3,10.8c0,0-6,4.3-7.8,5.3l6.6,8.5C175.4,52.9,193.7,43.1,189.7,27.1z M178.8,33.1c-4.6,0.3-5.7-1.5-6-3.2
		c-0.1-0.8,0-1.7,0.1-2.3c0.1-0.4,0.7-1.1,0.8-1.3c0.6-0.5,1.2-0.7,1.5-0.8C180.6,24.2,178.8,33.1,178.8,33.1z"/>
	<g>
		<g>
			<ellipse class="st8" cx="96.7" cy="35.5" rx="13" ry="13"/>
			<path class="st9" d="M15.8,46.2l0.3-6.4l1-17.8c0,0,17.8-1.8,15.7,10c0,0-2.7,8.2-16.4,7.2"/>
			<line class="st9" x1="47.7" y1="23" x2="47.6" y2="48.2"/>
			<line class="st9" x1="70.2" y1="23" x2="70.2" y2="48.2"/>
			<line class="st10" x1="47.6" y1="35.6" x2="70.2" y2="35.7"/>
			<line class="st9" x1="113.5" y1="20.4" x2="110.7" y2="26.3"/>
			<path class="st9" d="M94,9.8c0,0,5.3-1.4,6.7,0c0,0,3.3,1.5-1.9,6.2"/>
		</g>
		<path class="st9" d="M153.4,35.9c0,0-17.7,0.6-13.6-11.3c0.3-0.8,2.3-2.9,4-3.1c3.5-0.4,9.2,0,10.4,6.4c0,0,2.3,8.8-7.5,17.5"/>
		<path class="st9" d="M182.9,35.9c0,0-17.7,0.6-13.6-11.3c0.3-0.8,2.3-2.9,4-3.1c3.5-0.4,9.2,0,10.4,6.4c0,0,2.3,8.8-7.5,17.5"/>
	</g>
	<linearGradient id="SVGID_7_" gradientUnits="userSpaceOnUse" x1="185.2773" y1="53.5519" x2="188.2817" y2="47.9013">
		<stop  offset="0" style="stop-color:#25412E"/>
		<stop  offset="9.140885e-02" style="stop-color:#2B4530"/>
		<stop  offset="0.2221" style="stop-color:#3C5133"/>
		<stop  offset="0.3763" style="stop-color:#586737"/>
		<stop  offset="0.5485" style="stop-color:#858C38"/>
		<stop  offset="0.7335" style="stop-color:#CBC628"/>
		<stop  offset="0.7969" style="stop-color:#EDE30F"/>
		<stop  offset="0.8185" style="stop-color:#EBDC14"/>
		<stop  offset="0.851" style="stop-color:#E6CD1B"/>
		<stop  offset="0.8905" style="stop-color:#DFB423"/>
		<stop  offset="0.9355" style="stop-color:#D79227"/>
		<stop  offset="0.9844" style="stop-color:#CE6A29"/>
		<stop  offset="1" style="stop-color:#CC5B29"/>
	</linearGradient>
	<path class="st11" d="M188.6,53.2h-3.7c-0.6,0-1-0.5-1-1v-3c0-0.6,0.5-1,1-1h3.7c0.6,0,1,0.5,1,1v3
		C189.6,52.8,189.2,53.2,188.6,53.2z"/>
</g>
<g>
</g>
<g>
</g>
<g>
</g>
<g>
</g>
<g>
</g>
<g>
</g>
</svg>
