<svg xmlns="http://www.w3.org/2000/svg" width="317.5" height="88.9" viewBox="0 0 317.5 88.9"><style type="text/css">.st0{fill:#FEE630;} .st1{fill:#FEE630;stroke:#FEE630;stroke-width:2.791;stroke-miterlimit:10;} .st2{fill:#FEE630;stroke:#FEE630;stroke-width:1.8606;stroke-miterlimit:10;}</style><g id="Graphics"><path class="st0" d="M70.2 17.4h-8.1l-8.1.1c-2.7 0-5.4.1-8.1.2l-8.1.3-8.1.2-4 .1h-.5l-.3.1c-.2.1-.5.1-.7.3-.5.2-.9.5-1.3.9-.7.8-1.1 1.8-1.1 2.8l.1 4c.1 2.7.1 5.4.1 8.1v8.1c0 2.7 0 5.4-.1 8.1l-.1 8.1-.2 8.1c0 .6.1 1 .2 1.6.2.5.5 1 .8 1.4.7.8 1.7 1.3 2.8 1.4l8 .2 8.1.2 8.1.1-.5.5v-10.1c0-3.4 0-6.7-.1-10.1l.6.6h-7.3v-.7l-.2-8.4v-.8h.8l6.8-.1-.9.9-.2-8.4v-.2c.1-.5.2-1 .3-1.4.1-.5.3-.9.4-1.3.2-.4.3-.9.6-1.3.2-.4.4-.8.7-1.3l.9-1.2c.3-.4.7-.7 1.1-1l.6-.5.7-.4c.4-.3.9-.4 1.4-.6.5-.2 1-.3 1.5-.4l1.5-.2h2.6l5.2-.1h1.4v1.5l.1 7.8v1.5h-5.4c-.6 0-1.3 0-1.8.1h-.1s.1 0 .2-.1h.2-.1c-.1.1-.1 0-.1 0-.1.1-.1.1-.2.3-.3.5-.3 1-.3 1.5v5.8l-1.7-1.7 7.6-.1h1.9l-.2 1.9-.7 8.2-.1 1.6h-8.9l1.8-1.8v10.2l-.1 10.2-1.7-1.7c3.1 0 6.1 0 9.2.1h2.3c.8 0 1.4 0 1.9-.1 1-.2 2-1 2.5-2 .2-.5.4-1 .4-1.6l.1-2.3.1-4.6.3-9.2.5-18.3.2-9.2c0-.8 0-1.5-.2-2.2-.2-.7-.5-1.4-1-1.9-1.1-1.1-2.5-1.8-4-1.8zm0-.3c1.6 0 3.1.7 4.2 1.9.5.6.9 1.3 1.1 2.1.2.8.2 1.6.2 2.3l.2 9.2.5 18.3.3 9.2.1 4.6.1 2.3c0 .9-.2 1.9-.6 2.8-.8 1.8-2.4 3.2-4.3 3.8-1 .3-2 .3-2.7.3h-2.3c-3.1.1-6.1.1-9.2.1h-1.7v-24h9.1l-1.8 1.6.8-8 1.7 1.9-7.6-.1h-1.7v-7.5c0-.8.1-1.6.5-2.6.2-.5.5-.9.9-1.3l.3-.3c.1-.1.3-.2.4-.2h.1l.1-.1h.1c.1-.1.3-.1.4-.1h.4c.8-.1 1.4-.1 2.1-.1h3.9l-1.6 1.5.1-7.8 1.5 1.5-5.2-.1h-2.6c-.4 0-.7 0-1.1.1-.3.1-.7.1-1.1.2-.3.1-.7.2-1 .4l-.5.3-.4.3-.8.7-.7.9c-.2.3-.4.6-.6 1-.2.3-.3.7-.5 1.1-.2.4-.3.7-.4 1.1-.1.4-.2.8-.3 1.1v-.1l-.2 8.4v1h-.9l-6.5-.3.8-.8-.2 8.3-.6-.6 6.8.1h.6v.6c0 3.4 0 6.7-.1 10.1v10.6h-.5l-8.1.1c-2.7 0-5.4.1-8.1.2l-8.1.2c-1.6 0-3.2-.7-4.3-1.9-.6-.6-1-1.3-1.3-2-.3-.7-.5-1.7-.5-2.4l-.2-8.1c-.1-2.7-.1-5.4-.1-8.1 0-2.7 0-5.4-.1-8.1v-8.1c0-2.7 0-5.4.1-8.1l.1-4.1c.1-1.7.8-3.3 2-4.5.6-.6 1.3-1 2.1-1.3.4-.1.8-.3 1.2-.3l.7-.1h.5l4.1.1 8.1.2 8.1.2c2.7.1 5.4.2 8.1.2l8.1.1 8 .1zM144.9 23.9l-.4-.4c-2.1-2.2-5.1-3.5-8.4-3.5-6.5 0-11.8 5.3-11.8 11.8 0 .9.1 1.8.3 2.6 0 0-10.2 3.8-26.6-12.4 0 0-4.5 11 4.1 16.8 0 0-2.6.6-5.3-1.5 0 0-.9 9.9 9.7 12.3 0 0-3 1.1-5.6.7 0 0 2.6 7.8 11.2 8.2 0 0-5.8 6.9-18 5.4 0 0 21.8 14.5 41.9-3 0 0 14.3-12.2 12-28l6.9-6.8-8.5 2.6 5.9-7.2-7.4 2.4zM197 16.4c-15.2 0-27.5 12.3-27.5 27.5 0 12 7.7 22.2 18.4 25.9l-1.9-.8c-1.8-2.4 3.9-20.8 3.9-20.8-3.6-9.5 3.3-12.2 3.3-12.2 7.7-1.8 4.2 9.8 4.2 9.8-4.2 7.7 1.8 9.5 1.8 9.5 11-.6 8.9-15.7 8.9-15.7-1.5-14-18.1-7.7-18.1-7.7-10.7 7.7-3.9 17.8-3.9 17.8l-1.2 4.2c-9.5-5.6-4.8-17.8-4.8-17.8 5.1-10.1 15.5-10.1 15.5-10.1 11.9-2.4 17.2 7.4 17.2 7.4 5.1 8.9-.3 19.3-.3 19.3-8.6 13.4-18.7 5.1-18.7 5.1-.5 8.1-3.6 11.9-4.3 12.6 2.4.7 4.9 1.1 7.5 1.1 15.2 0 27.5-12.3 27.5-27.5s-12.3-27.6-27.5-27.6zM291.4 72.1h-8.8c-2.8 0-6.2 0-10.1.1-3.9.1-8.3.1-13.1.3-1.2 0-2.4.1-3.7.1-1.2 0-2.5.1-3.9 0-2.8-.4-5.4-2.2-6.8-4.9-.4-.7-.6-1.4-.8-2.1-.2-.7-.2-1.6-.2-2.3 0-1.4-.1-2.8-.1-4.3-.1-2.9-.2-5.8-.2-8.8-.1-3-.2-6-.2-9.1l-.2-9.3-.1-4.7v-1.2c0-.6 0-.8.1-1.4l.1-.8.2-.7c.1-.5.3-.9.5-1.4.8-1.8 2.1-3.3 3.7-4.4 1.6-1.1 3.6-1.6 5.5-1.7 6.4 0 12.8 0 19 .1 3.1.1 6.3.1 9.3.2 3.1.1 6.1.2 9.1.2h1.2c.3 0 .9.1 1.3.2.8.2 1.6.5 2.4.9 1.5.8 2.7 2 3.5 3.4.8 1.4 1.3 3 1.4 4.5 0 1.5-.1 2.8-.1 4.2-.1 5.5-.3 10.7-.4 15.5-.2 4.8-.2 9.2-.3 13.1 0 1.9-.1 3.8-.1 5.4 0 1.7-.4 3.3-1.1 4.5-1.4 2.5-3.6 3.5-5 3.9-.5.4-1.1.4-1.5.4-.4.1-.6.1-.6.1zm0 0h.6c.4 0 1-.1 1.7-.3 1.4-.4 3.5-1.5 4.9-3.9 1.5-2.5.9-6 1-9.9-.1-3.9-.1-8.3-.3-13.1-.1-4.8-.3-10-.4-15.5l-.1-4.1c-.1-1.2-.5-2.5-1.2-3.5s-1.7-1.9-2.8-2.4c-.6-.3-1.2-.4-1.8-.6l-.4-.1h-1.6c-3 .1-6 .2-9.1.2l-9.3.2c-6.3.1-12.7.1-19 .1-2.5 0-4.9 1.5-5.9 3.8l-.3.9-.1.4-.1.4c-.1.2-.1.8-.1 1v1.2c0 1.6-.1 3.2-.1 4.7-.1 3.1-.1 6.3-.2 9.3-.1 3.1-.2 6.1-.2 9.1-.1 3-.2 5.9-.2 8.8l-.1 4.3c0 .7 0 1.3.1 1.9.1.6.3 1.2.5 1.8 1 2.3 3.2 4 5.5 4.4 1.2.2 2.5.2 3.7.2l3.7.1c4.8.2 9.2.2 13.1.3 3.9.1 7.3.1 10.1.1 5.2.2 8.4.2 8.4.2zM290.3 34h-4.1c-1.8 0-3.3-1.5-3.3-3.3v-3.6c0-1.8 1.5-3.3 3.3-3.3h4.1c1.8 0 3.3 1.5 3.3 3.3v3.6c0 1.9-1.5 3.3-3.3 3.3zM290.3 34h-1.5c-.5 0-1.1 0-1.8.1-.3 0-.7.1-1.1.1-.4 0-.9-.1-1.3-.2-.9-.3-1.8-1-2.3-2.2l-.3-.9-.1-.8-.3-1.5-.1-.8-.1-.4v-1.1l.1-.6c.1-.4.2-.8.4-1.2.8-1.5 2.5-2.5 4.3-2.5 1.1 0 2.2 0 3.3.1h1.1l.3.1c.2 0 .4.1.6.2.7.3 1.4.8 1.9 1.3.5.6.8 1.2.9 1.9.1.3.1.7.1 1v.5l-.1.4c-.2 1-.3 1.9-.4 2.7-.1.4-.1.8-.3 1.3-.1.4-.3.7-.5 1-.4.6-.9.9-1.4 1.1-.5.2-.8.3-1.1.3-.1.1-.3.1-.3.1zm0 0h.4c.3 0 .6-.1 1.1-.4.4-.2.9-.6 1.2-1.2.3-.6.4-1.3.2-2.1-.1-.8-.3-1.8-.4-2.7l-.1-.4-.1-.3-.2-.5c-.2-.3-.5-.5-.7-.7-.3-.2-.6-.3-.9-.3h-1.2999999999999998.1c-1.1.1-2.2.1-3.3.1-.5 0-1 .2-1.3.6-.1.1-.2.2-.2.3l-.1.2v.7-.1l-.1.4-.1.8-.3 1.5c-.1.6-.2.9-.2 1.3 0 .7.5 1.5 1.1 1.9.3.2.7.4 1 .5.4.1.7.1 1.1.1.7.1 1.3.1 1.8.1.8.2 1.3.2 1.3.2z"/><circle class="st1" cx="272.4" cy="44.8" r="10.6"/><path class="st0" d="M288.8 40.4M256 40.5"/><path class="st2" d="M288.8 40.4c.3 1.3.5 2.7.5 4.2 0 9.3-7.6 16.9-16.9 16.9-9.3 0-16.9-7.6-16.9-16.9 0-1.4.2-2.8.5-4.1h-4.8v22.6c0 1.5 1.2 2.7 2.7 2.7h37c1.5 0 2.7-1.2 2.7-2.7v-22.6s-3.9-.2-4.8-.1z"/></g></svg>