<?xml version="1.0" encoding="utf-8"?>
<!-- Generator: Adobe Illustrator 18.1.1, SVG Export Plug-In . SVG Version: 6.00 Build 0)  -->
<!DOCTYPE svg PUBLIC "-//W3C//DTD SVG 1.1//EN" "http://www.w3.org/Graphics/SVG/1.1/DTD/svg11.dtd">
<svg version="1.1" xmlns="http://www.w3.org/2000/svg" xmlns:xlink="http://www.w3.org/1999/xlink" x="0px" y="0px" width="317.5px"
	 height="88.9px" viewBox="0 0 317.5 88.9" style="enable-background:new 0 0 317.5 88.9;" xml:space="preserve">
<style type="text/css">
	.st0{fill:#FEE630;}
	.st1{fill:#FEE630;stroke:#FEE630;stroke-width:2.791;stroke-miterlimit:10;}
	.st2{fill:#FEE630;stroke:#FEE630;stroke-width:1.8606;stroke-miterlimit:10;}
</style>
<g id="Layer_1">
</g>
<g id="Graphics">
	<g>
		<path class="st0" d="M70.2,17.4l-8.1,0c-2.7,0-5.4,0.1-8.1,0.1c-2.7,0-5.4,0.1-8.1,0.2L37.8,18l-8.1,0.2l-4,0.1l-0.5,0l-0.3,0.1
			c-0.2,0.1-0.5,0.1-0.7,0.3c-0.5,0.2-0.9,0.5-1.3,0.9c-0.7,0.8-1.1,1.8-1.1,2.8l0.1,4c0.1,2.7,0.1,5.4,0.1,8.1c0,2.7,0,5.4,0,8.1
			c0,2.7,0,5.4-0.1,8.1c0,2.7-0.1,5.4-0.1,8.1l-0.2,8.1c0,0.6,0.1,1,0.2,1.6c0.2,0.5,0.5,1,0.8,1.4c0.7,0.8,1.7,1.3,2.8,1.4l8,0.2
			c2.7,0.1,5.4,0.1,8.1,0.2l8.1,0.1l-0.5,0.5c0-3.4,0-6.7,0-10.1c0-3.4,0-6.7-0.1-10.1l0.6,0.6L43,52.7l-0.7,0l0-0.7l-0.2-8.4l0-0.8
			l0.8,0l6.8-0.1l-0.9,0.9l-0.2-8.4l0-0.1l0-0.1c0.1-0.5,0.2-1,0.3-1.4c0.1-0.5,0.3-0.9,0.4-1.3c0.2-0.4,0.3-0.9,0.6-1.3
			c0.2-0.4,0.4-0.8,0.7-1.3c0.3-0.4,0.6-0.8,0.9-1.2c0.3-0.4,0.7-0.7,1.1-1c0.2-0.2,0.4-0.3,0.6-0.5l0.7-0.4
			c0.4-0.3,0.9-0.4,1.4-0.6c0.5-0.2,1-0.3,1.5-0.4c0.5-0.1,1-0.1,1.5-0.2c0.5,0,0.9,0,1.3,0l1.3,0l5.2-0.1l1.4,0l0,1.5l0.1,7.8
			l0,1.5l-1.6,0c-1.3,0-2.6,0-3.8,0c-0.6,0-1.3,0-1.8,0.1l-0.1,0c0,0,0.1,0,0.2-0.1l0.1,0l0.1,0l0,0l-0.1,0c-0.1,0.1-0.1,0-0.1,0
			c0,0,0,0,0,0c-0.1,0.1-0.1,0.1-0.2,0.3C60,36.9,60,37.4,60,37.9l0,1.9l0,3.9l-1.7-1.7l7.6-0.1l1.9,0l-0.2,1.9L66.9,52l-0.1,1.6
			l-1.6,0l-7.3,0l1.8-1.8c0,3.4,0,6.8,0,10.2l-0.1,10.2l-1.7-1.7c3.1,0,6.1,0,9.2,0.1l2.3,0c0.8,0,1.4,0,1.9-0.1c1-0.2,2-1,2.5-2
			c0.2-0.5,0.4-1,0.4-1.6l0.1-2.3l0.1-4.6l0.3-9.2l0.5-18.3l0.2-9.2c0-0.8,0-1.5-0.2-2.2c-0.2-0.7-0.5-1.4-1-1.9
			C73.1,18.1,71.7,17.4,70.2,17.4z M70.2,17.1c1.6,0,3.1,0.7,4.2,1.9c0.5,0.6,0.9,1.3,1.1,2.1c0.2,0.8,0.2,1.6,0.2,2.3l0.2,9.2
			l0.5,18.3l0.3,9.2l0.1,4.6l0.1,2.3c0,0.9-0.2,1.9-0.6,2.8c-0.8,1.8-2.4,3.2-4.3,3.8c-1,0.3-2,0.3-2.7,0.3l-2.3,0
			c-3.1,0.1-6.1,0.1-9.2,0.1l-1.7,0l0-1.7L56.1,62c0-3.4,0-6.8,0-10.2l0-1.8l1.8,0l7.3,0l-1.8,1.6l0.8-8l1.7,1.9l-7.6-0.1l-1.7,0
			l0-1.7l0-3.9l0-1.9c0-0.8,0.1-1.6,0.5-2.6c0.2-0.5,0.5-0.9,0.9-1.3c0.1-0.1,0.2-0.2,0.3-0.3c0.1-0.1,0.3-0.2,0.4-0.2l0.1,0l0,0
			c0.1-0.1,0.1,0,0.1-0.1l0.1,0c0.1-0.1,0.3-0.1,0.4-0.1l0.4,0c0.8-0.1,1.4-0.1,2.1-0.1c1.3,0,2.6,0,3.9,0l-1.6,1.5l0.1-7.8l1.5,1.5
			l-5.2-0.1l-1.3,0c-0.4,0-0.9,0-1.3,0c-0.4,0-0.7,0-1.1,0.1c-0.3,0.1-0.7,0.1-1.1,0.2c-0.3,0.1-0.7,0.2-1,0.4l-0.5,0.3
			c-0.1,0.1-0.3,0.2-0.4,0.3c-0.3,0.2-0.5,0.5-0.8,0.7c-0.2,0.3-0.5,0.6-0.7,0.9c-0.2,0.3-0.4,0.6-0.6,1c-0.2,0.3-0.3,0.7-0.5,1.1
			c-0.2,0.4-0.3,0.7-0.4,1.1c-0.1,0.4-0.2,0.8-0.3,1.1l0-0.1l-0.2,8.4l0,1l-0.9,0L43,44.5l0.8-0.8L43.6,52L43,51.4l6.8,0.1l0.6,0
			l0,0.6c0,3.4,0,6.7-0.1,10.1c0,3.4,0,6.7,0,10.1l0,0.5l-0.5,0l-8.1,0.1c-2.7,0-5.4,0.1-8.1,0.2l-8.1,0.2c-1.6,0-3.2-0.7-4.3-1.9
			c-0.6-0.6-1-1.3-1.3-2c-0.3-0.7-0.5-1.7-0.5-2.4l-0.2-8.1c-0.1-2.7-0.1-5.4-0.1-8.1c0-2.7,0-5.4-0.1-8.1c0-2.7,0-5.4,0-8.1
			c0-2.7,0-5.4,0.1-8.1l0.1-4.1c0.1-1.7,0.8-3.3,2-4.5c0.6-0.6,1.3-1,2.1-1.3c0.4-0.1,0.8-0.3,1.2-0.3l0.7-0.1l0.5,0l4.1,0.1
			l8.1,0.2l8.1,0.2c2.7,0.1,5.4,0.2,8.1,0.2c2.7,0,5.4,0.1,8.1,0.1L70.2,17.1z"/>
	</g>
	<path class="st0" d="M144.9,23.9c0,0-0.3-0.3-0.4-0.4c-2.1-2.2-5.1-3.5-8.4-3.5c-6.5,0-11.8,5.3-11.8,11.8c0,0.9,0.1,1.8,0.3,2.6
		l0,0c0,0-10.2,3.8-26.6-12.4c0,0-4.5,11,4.1,16.8c0,0-2.6,0.6-5.3-1.5c0,0-0.9,9.9,9.7,12.3c0,0-3,1.1-5.6,0.7
		c0,0,2.6,7.8,11.2,8.2c0,0-5.8,6.9-18,5.4c0,0,21.8,14.5,41.9-3c0,0,14.3-12.2,12-28c0,0,6.9-6.8,6.9-6.8l-8.5,2.6l5.9-7.2
		L144.9,23.9z"/>
	<path class="st0" d="M197,16.4c-15.2,0-27.5,12.3-27.5,27.5c0,12,7.7,22.2,18.4,25.9L186,69c-1.8-2.4,3.9-20.8,3.9-20.8
		c-3.6-9.5,3.3-12.2,3.3-12.2c7.7-1.8,4.2,9.8,4.2,9.8c-4.2,7.7,1.8,9.5,1.8,9.5c11-0.6,8.9-15.7,8.9-15.7
		c-1.5-14-18.1-7.7-18.1-7.7c-10.7,7.7-3.9,17.8-3.9,17.8l-1.2,4.2c-9.5-5.6-4.8-17.8-4.8-17.8c5.1-10.1,15.5-10.1,15.5-10.1
		c11.9-2.4,17.2,7.4,17.2,7.4c5.1,8.9-0.3,19.3-0.3,19.3c-8.6,13.4-18.7,5.1-18.7,5.1c-0.5,8.1-3.6,11.9-4.3,12.6
		c2.4,0.7,4.9,1.1,7.5,1.1c15.2,0,27.5-12.3,27.5-27.5S212.2,16.4,197,16.4z"/>
	<g>
		<g>
			<path class="st0" d="M291.4,72.1c0,0-3.2,0-8.8,0c-2.8,0-6.2,0-10.1,0.1c-3.9,0.1-8.3,0.1-13.1,0.3c-1.2,0-2.4,0.1-3.7,0.1
				c-1.2,0-2.5,0.1-3.9,0c-2.8-0.4-5.4-2.2-6.8-4.9c-0.4-0.7-0.6-1.4-0.8-2.1c-0.2-0.7-0.2-1.6-0.2-2.3c0-1.4-0.1-2.8-0.1-4.3
				c-0.1-2.9-0.2-5.8-0.2-8.8c-0.1-3-0.2-6-0.2-9.1c-0.1-3.1-0.1-6.2-0.2-9.3c0-1.6-0.1-3.1-0.1-4.7l0-1.2c0-0.6,0-0.8,0.1-1.4
				l0.1-0.8l0.2-0.7c0.1-0.5,0.3-0.9,0.5-1.4c0.8-1.8,2.1-3.3,3.7-4.4c1.6-1.1,3.6-1.6,5.5-1.7c6.4,0,12.8,0,19,0.1
				c3.1,0.1,6.3,0.1,9.3,0.2c3.1,0.1,6.1,0.2,9.1,0.2l0.6,0l0.6,0c0.3,0,0.9,0.1,1.3,0.2c0.8,0.2,1.6,0.5,2.4,0.9
				c1.5,0.8,2.7,2,3.5,3.4c0.8,1.4,1.3,3,1.4,4.5c0,1.5-0.1,2.8-0.1,4.2c-0.1,5.5-0.3,10.7-0.4,15.5c-0.2,4.8-0.2,9.2-0.3,13.1
				c0,1.9-0.1,3.8-0.1,5.4c0,1.7-0.4,3.3-1.1,4.5c-1.4,2.5-3.6,3.5-5,3.9C293,72,292.4,72,292,72C291.6,72.1,291.4,72.1,291.4,72.1z
				 M291.4,72.1c0,0,0.2,0,0.6,0c0.4,0,1-0.1,1.7-0.3c1.4-0.4,3.5-1.5,4.9-3.9c1.5-2.5,0.9-6,1-9.9c-0.1-3.9-0.1-8.3-0.3-13.1
				c-0.1-4.8-0.3-10-0.4-15.5c0-1.3-0.1-2.8-0.1-4.1c-0.1-1.2-0.5-2.5-1.2-3.5c-0.7-1-1.7-1.9-2.8-2.4c-0.6-0.3-1.2-0.4-1.8-0.6
				l-0.4-0.1c-0.1,0-0.3,0-0.5,0l-0.6,0l-0.5,0c-3,0.1-6,0.2-9.1,0.2c-3.1,0.1-6.2,0.1-9.3,0.2c-6.3,0.1-12.7,0.1-19,0.1
				c-2.5,0-4.9,1.5-5.9,3.8c-0.1,0.3-0.2,0.6-0.3,0.9l-0.1,0.4l-0.1,0.4c-0.1,0.2-0.1,0.8-0.1,1l0,1.2c0,1.6-0.1,3.2-0.1,4.7
				c-0.1,3.1-0.1,6.3-0.2,9.3c-0.1,3.1-0.2,6.1-0.2,9.1c-0.1,3-0.2,5.9-0.2,8.8c0,1.4-0.1,2.9-0.1,4.3c0,0.7,0,1.3,0.1,1.9
				c0.1,0.6,0.3,1.2,0.5,1.8c1,2.3,3.2,4,5.5,4.4c1.2,0.2,2.5,0.2,3.7,0.2c1.2,0,2.5,0.1,3.7,0.1c4.8,0.2,9.2,0.2,13.1,0.3
				c3.9,0.1,7.3,0.1,10.1,0.1C288.2,72.1,291.4,72.1,291.4,72.1z"/>
		</g>
		<g>
			<path class="st0" d="M290.3,34h-4.1c-1.8,0-3.3-1.5-3.3-3.3v-3.6c0-1.8,1.5-3.3,3.3-3.3h4.1c1.8,0,3.3,1.5,3.3,3.3v3.6
				C293.6,32.6,292.1,34,290.3,34z"/>
			<path class="st0" d="M290.3,34c0,0-0.6,0-1.5,0c-0.5,0-1.1,0-1.8,0.1c-0.3,0-0.7,0.1-1.1,0.1c-0.4,0-0.9-0.1-1.3-0.2
				c-0.9-0.3-1.8-1-2.3-2.2c-0.1-0.3-0.2-0.6-0.3-0.9c0-0.3-0.1-0.5-0.1-0.8c-0.1-0.5-0.2-1-0.3-1.5c0-0.3-0.1-0.5-0.1-0.8l-0.1-0.4
				l0-0.2l0,0l0-0.1l0,0l0-0.1l0-0.1c0-0.1,0-0.1,0-0.2l0-0.4c0-0.2,0.1-0.4,0.1-0.6c0.1-0.4,0.2-0.8,0.4-1.2
				c0.8-1.5,2.5-2.5,4.3-2.5c1.1,0,2.2,0,3.3,0.1l0.4,0l0.2,0l0.1,0l0,0l0.1,0l0.1,0l0.2,0l0.3,0.1c0.2,0,0.4,0.1,0.6,0.2
				c0.7,0.3,1.4,0.8,1.9,1.3c0.5,0.6,0.8,1.2,0.9,1.9c0.1,0.3,0.1,0.7,0.1,1c0,0.2,0,0.3,0,0.5l-0.1,0.4c-0.2,1-0.3,1.9-0.4,2.7
				c-0.1,0.4-0.1,0.8-0.3,1.3c-0.1,0.4-0.3,0.7-0.5,1c-0.4,0.6-0.9,0.9-1.4,1.1c-0.5,0.2-0.8,0.3-1.1,0.3
				C290.5,34,290.3,34,290.3,34z M290.3,34c0,0,0.1,0,0.4,0c0.3,0,0.6-0.1,1.1-0.4c0.4-0.2,0.9-0.6,1.2-1.2c0.3-0.6,0.4-1.3,0.2-2.1
				c-0.1-0.8-0.3-1.8-0.4-2.7l-0.1-0.4l-0.1-0.3c-0.1-0.2-0.1-0.3-0.2-0.5c-0.2-0.3-0.5-0.5-0.7-0.7c-0.3-0.2-0.6-0.3-0.9-0.3
				c-0.1,0-0.2,0-0.2,0c0,0,0,0-0.1,0l-0.2,0l-0.1,0c0,0,0.1,0,0.1,0l0,0l0,0l-0.1,0l-0.2,0l-0.4,0c-1.1,0.1-2.2,0.1-3.3,0.1
				c-0.5,0-1,0.2-1.3,0.6c-0.1,0.1-0.2,0.2-0.2,0.3l-0.1,0.2c0,0,0,0,0,0.1c0,0,0,0.1,0,0.2l0,0.1l0,0.1l0,0c0,0.1,0-0.1,0-0.1l0,0
				l0,0.2l-0.1,0.4c0,0.3-0.1,0.5-0.1,0.8c-0.1,0.5-0.2,1-0.3,1.5c-0.1,0.6-0.2,0.9-0.2,1.3c0,0.7,0.5,1.5,1.1,1.9
				c0.3,0.2,0.7,0.4,1,0.5c0.4,0.1,0.7,0.1,1.1,0.1c0.7,0.1,1.3,0.1,1.8,0.1C289.8,34,290.3,34,290.3,34z"/>
		</g>
		<circle class="st1" cx="272.4" cy="44.8" r="10.6"/>
		<g>
			<g>
				<path class="st0" d="M288.8,40.4"/>
			</g>
			<g>
				<path class="st0" d="M256,40.5"/>
			</g>
			<path class="st2" d="M288.8,40.4c0.3,1.3,0.5,2.7,0.5,4.2c0,9.3-7.6,16.9-16.9,16.9c-9.3,0-16.9-7.6-16.9-16.9
				c0-1.4,0.2-2.8,0.5-4.1h-4.8v22.6c0,1.5,1.2,2.7,2.7,2.7h37c1.5,0,2.7-1.2,2.7-2.7V40.5C293.6,40.5,289.7,40.3,288.8,40.4z"/>
		</g>
	</g>
	<g>
	</g>
	<g>
	</g>
	<g>
	</g>
	<g>
	</g>
	<g>
	</g>
	<g>
	</g>
</g>
</svg>
